<?xml version="1.0" encoding="UTF-8" standalone="no"?>
<!-- Created with Inkscape (http://www.inkscape.org/) -->

<svg
   xmlns:dc="http://purl.org/dc/elements/1.1/"
   xmlns:cc="http://creativecommons.org/ns#"
   xmlns:rdf="http://www.w3.org/1999/02/22-rdf-syntax-ns#"
   xmlns:svg="http://www.w3.org/2000/svg"
   xmlns="http://www.w3.org/2000/svg"
   xmlns:xlink="http://www.w3.org/1999/xlink"
   xmlns:sodipodi="http://sodipodi.sourceforge.net/DTD/sodipodi-0.dtd"
   xmlns:inkscape="http://www.inkscape.org/namespaces/inkscape"
   width="85.570358mm"
   height="85.416534mm"
   viewBox="0 0 303.20205 302.65699"
   id="svg3591"
   version="1.1"
   inkscape:version="0.92.1 unknown"
   sodipodi:docname="logo.svg">
  <defs
     id="defs3593">
    <linearGradient
       inkscape:collect="always"
       xlink:href="#linearGradient4637"
       id="linearGradient4643-1"
       x1="1108.772"
       y1="118.09727"
       x2="1216.3668"
       y2="62.013294"
       gradientUnits="userSpaceOnUse"
       gradientTransform="matrix(2.5321468,0,0,2.5321468,-2622.9157,55.60333)" />
    <linearGradient
       inkscape:collect="always"
       id="linearGradient4637">
      <stop
         style="stop-color:#302db2;stop-opacity:1"
         offset="0"
         id="stop4639" />
      <stop
         style="stop-color:#7774dc;stop-opacity:1"
         offset="1"
         id="stop4641" />
    </linearGradient>
  </defs>
  <sodipodi:namedview
     id="base"
     pagecolor="#ffffff"
     bordercolor="#666666"
     borderopacity="1.0"
     inkscape:pageopacity="0.0"
     inkscape:pageshadow="2"
     inkscape:zoom="1.1772245"
     inkscape:cx="96.977772"
     inkscape:cy="-60.70093"
     inkscape:document-units="px"
     inkscape:current-layer="layer1"
     showgrid="false"
     fit-margin-top="1"
     fit-margin-left="1"
     fit-margin-bottom="1"
     fit-margin-right="1"
     inkscape:window-width="2495"
     inkscape:window-height="1416"
     inkscape:window-x="65"
     inkscape:window-y="24"
     inkscape:window-maximized="1" />
  <metadata
     id="metadata3596">
    <rdf:RDF>
      <cc:Work
         rdf:about="">
        <dc:format>image/svg+xml</dc:format>
        <dc:type
           rdf:resource="http://purl.org/dc/dcmitype/StillImage" />
        <dc:title></dc:title>
      </cc:Work>
    </rdf:RDF>
  </metadata>
  <g
     inkscape:label="Layer 1"
     inkscape:groupmode="layer"
     id="layer1"
     transform="translate(-153.50087,-132.308)">
    <path
       style="fill:url(#linearGradient4643-1);fill-opacity:1"
       d="m 288.33504,430.46449 c -33.3086,-3.4897 -64.5001,-18.76196 -88.7768,-43.46746 -25.0161,-25.45853 -39.1725,-57.02367 -42.1271,-93.93467 -2.3478,-29.33447 6.0888,-62.5079 22.5599,-88.70799 16.4471,-26.1616 41.8683,-47.32343 70.5172,-58.70191 7.5163,-2.98537 22.0338,-7.16339 23.5503,-6.77775 0.7145,0.18181 1.1122,0.0287 0.8832,-0.34204 -0.2304,-0.37 0.3657,-0.67251 1.3182,-0.67251 1.1499,0 3.3448,1.62473 6.5125,4.82113 l 4.7784,4.82105 h 9.9148 9.9147 l 3.7732,-3.30078 c 2.0753,-1.81544 4.1,-3.09891 4.4993,-2.85223 0.3986,0.24663 0.5203,0.11572 0.2672,-0.29021 -0.2508,-0.40618 0.6148,-1.74434 1.9252,-2.9733 l 2.3812,-2.23451 7.0465,1.032 c 24.0273,3.51887 48.6473,14.18169 68.9637,29.86826 13.0077,10.0431 27.4029,26.44731 36.2451,41.30363 6.8072,11.43763 13.1744,27.42421 16.3524,41.06111 4.6055,19.75796 5.4378,34.81288 2.9513,53.40293 -5.0737,37.94055 -24.9584,73.21725 -54.4215,96.5461 -16.2355,12.85597 -31.6523,20.78576 -51.9191,26.70658 -9.8914,2.88966 -13.0517,3.49073 -24.8475,4.72547 -11.8651,1.24204 -20.1766,1.2336 -32.264,-0.0329 z m -18.2439,-70.94455 c 1.0628,-3.04916 1.0407,-8.9641 -0.043,-11.34116 l -0.8558,-1.87943 -24.9179,-0.19523 -24.9181,-0.19523 -0.2431,-14.64875 -0.243,-14.64874 h 17.5915 c 20.5021,0 19.5474,0.37286 19.5847,-7.65126 0.043,-8.44059 1.2961,-7.92459 -19.3008,-7.92459 h -17.7891 l 0.1975,-16.50296 0.2026,-16.50298 h 17.613 17.6129 l 0.3124,-7.98242 0.3125,-7.98245 -27.1985,0.19448 -27.1983,0.19446 -0.1924,53.77376 c -0.1064,29.57558 -0.043,54.19101 0.1671,54.70091 0.2755,0.7231 7.8512,0.92717 34.423,0.92717 h 34.0693 l 0.8143,-2.33583 z m 105.9618,-20.4717 0.1975,-22.43664 h 17.3287 c 12.9699,0 17.5161,-0.23296 18.0755,-0.92715 1.8533,-2.30063 1.9508,-11.03294 0.1544,-13.94248 -0.54,-0.87516 -3.9721,-1.1466 -18.3083,-1.44793 l -17.6435,-0.37081 v -15.94669 -15.94671 l 24.8466,-0.18941 c 22.3054,-0.1699 24.9427,-0.31738 25.7742,-1.43974 1.1,-1.48246 1.235,-9.70454 0.2077,-12.41489 l -0.7229,-1.90258 h -29.3332 -29.3334 l 0.5042,6.04431 c 0.6168,7.39741 0.058,8.04812 -6.9156,8.04812 h -4.6797 v 47.34563 c 0,26.04014 0.233,47.57767 0.5158,47.86122 0.2834,0.28365 4.7061,0.42264 9.8273,0.30915 l 9.3125,-0.20637 0.1975,-22.43664 z m -75.8355,-1.69274 c 0.259,-0.42107 8.04,-5.79839 17.2887,-11.94963 9.2481,-6.15127 17.2708,-11.6147 17.8279,-12.14106 1.2369,-1.16861 1.4559,-0.79436 -13.5868,-23.17324 -9.9346,-14.77909 -11.3023,-16.499 -13.1193,-16.499 -2.7269,0 -11.6958,5.77748 -12.2214,7.87299 -0.3001,1.18869 0.8247,3.47367 4.1034,8.34975 2.4822,3.6923 4.5135,7.09601 4.5135,7.56387 0,1.20971 -3.0731,0.34982 -9.4503,-2.64361 -6.2075,-2.91381 -12.5934,-8.93579 -15.4461,-14.56538 -5.9917,-11.82382 -5.2488,-26.1756 1.8996,-36.69907 1.6323,-2.40238 2.9683,-4.57652 2.969,-4.83151 0,-0.25486 -0.9924,-0.66241 -2.2072,-0.9054 -1.7034,-0.3408 -2.8487,-1.47928 -5.0061,-4.97721 -1.5388,-2.49447 -3.146,-5.03302 -3.5711,-5.64125 -1.1081,-1.58496 -6.9317,6.02404 -10.6983,13.97794 -6.9659,14.71047 -6.8679,30.29949 0.2792,44.73703 6.8652,13.86414 17.8162,23.4514 32.1447,28.14193 2.1416,0.7011 3.8934,1.52726 3.8934,1.83588 0,0.30874 -2.6699,2.31836 -5.9336,4.46605 -7.2184,4.75033 -7.3781,5.57915 -2.4645,12.77002 3.0945,4.52912 3.729,5.0765 5.8892,5.0765 1.3322,0 2.6345,-0.3445 2.8948,-0.7656 z m 63.648,-78.96794 c -0.7255,-21.69156 -19.8343,-43.11544 -42.0536,-47.14839 -6.3527,-1.15302 -16.4294,-0.97933 -22.3108,0.38438 -8.2834,1.92114 -7.9555,1.35194 -5.8814,10.21704 2.2797,9.74217 2.3076,9.81273 3.4392,8.90583 1.8588,-1.48864 9.4492,-3.13991 14.4345,-3.13991 15.2161,0 28.6282,9.76942 33.576,24.45735 0.8194,2.43235 1.4899,5.54553 1.4899,6.91821 0,1.37267 0.2355,2.72859 0.5176,3.01318 0.2835,0.28445 4.2063,0.42362 8.7146,0.30912 l 8.1984,-0.2084 -0.1242,-3.70853 z m -72.393,-26.1256 c 0.9784,-1.48441 0.8576,-2.62118 -1.2104,-11.37681 -1.2638,-5.35014 -2.2977,-10.32447 -2.2977,-11.05403 0,-1.2152 3.9896,-4.45751 13.111,-10.65569 l 3.0917,-2.10059 6.9181,1.60902 c 3.805,0.88491 7.3156,1.72861 7.8008,1.87479 0.4854,0.14636 0.9862,1.67132 1.1131,3.3892 l 0.2305,3.12344 5.192,1.26354 c 2.8559,0.69496 6.1565,1.65331 7.3345,2.12968 1.1784,0.47638 2.2465,0.7622 2.3736,0.63516 0.1291,-0.12711 1.2228,-4.68913 2.4352,-10.13795 2.5032,-11.25275 2.3629,-12.36215 -1.8908,-14.93326 -1.5595,-0.94262 -5.636,-3.5402 -9.0587,-5.77241 -5.0631,-3.30168 -6.4464,-3.90073 -7.4172,-3.21221 -2.8061,1.98993 -6.3618,2.93311 -18.468,4.8994 -7.9185,1.28605 -13.9329,1.90552 -15.7218,1.61939 -3.1121,-0.49762 -2.9619,-0.64728 -11.1354,11.05884 -6.6904,9.58137 -7.3027,10.77201 -6.6717,12.97156 0.653,2.27731 12.7995,23.88979 14.6634,26.09132 2.1225,2.50672 7.5479,1.70358 9.6085,-1.42239 z m 9.0018,-52.85383 c 14.1639,-2.26675 17.1613,-3.34112 17.1542,-6.14861 0,-3.21066 -1.5735,-7.24239 -3.2359,-8.33129 -1.4855,-0.97346 -2.6766,-0.97574 -10.1619,-0.0178 -12.4189,1.5871 -19.7738,3.01257 -21.0627,4.08233 -2.1488,1.78341 -1.0908,10.90545 1.3803,11.90433 2.0592,0.83207 0.5533,0.97267 15.926,-1.48756 z m -0.5387,-16.4135 c 6.2658,-0.90013 11.4747,-1.69338 11.5755,-1.7628 0.099,-0.0694 -0.3743,-2.90043 -1.0537,-6.29113 l -1.2366,-6.16486 -11.1136,0.44206 c -6.1126,0.24309 -11.3438,0.70753 -11.6243,1.03205 -0.5179,0.59762 -2.241,11.29049 -2.2322,13.84804 0,1.13723 0.3951,1.31256 2.1491,0.96198 1.179,-0.23599 7.2698,-1.16521 13.5358,-2.06534 z"
       id="path4635-4"
       inkscape:connector-curvature="0" />
  </g>
</svg>
